<?xml version="1.0" encoding="UTF-8"?>
<svg id="Layer_2" data-name="Layer 2" xmlns="http://www.w3.org/2000/svg" viewBox="0 0 222 252.46">
  <defs>
    <style>
      .cls-1 {
        fill: #1a1a1d;
      }
    </style>
  </defs>
  <g id="Layer_1-2" data-name="Layer 1">
    <path class="cls-1" d="M215.73,58.53L117.27,1.68c-3.88-2.24-8.66-2.24-12.54,0L6.27,58.53c-3.88,2.23-6.27,6.37-6.27,10.85v113.7c0,4.48,2.39,8.62,6.27,10.85l74.73,43.15v-104.85h-41c-5.52,0-10-4.48-10-10s4.48-10,10-10h51c5.52,0,10,4.48,10,10v126.4l3.73,2.15c3.88,2.24,8.66,2.24,12.54,0l3.73-2.15v-126.4c0-5.52,4.48-10,10-10h51c5.52,0,10,4.48,10,10s-4.48,10-10,10h-41v104.85l74.73-43.15c3.88-2.23,6.27-6.37,6.27-10.85v-113.7c0-4.48-2.39-8.62-6.27-10.85ZM182,92.23H40c-2.76,0-5.26-1.12-7.07-2.93s-2.93-4.31-2.93-7.07c0-5.52,4.48-10,10-10h142c2.76,0,5.26,1.12,7.07,2.93,1.81,1.81,2.93,4.31,2.93,7.07,0,5.52-4.48,10-10,10Z"/>
  </g>
</svg>