<?xml version="1.0" encoding="UTF-8"?>
<svg id="Layer_2" data-name="Layer 2" xmlns="http://www.w3.org/2000/svg" viewBox="0 0 1859 166.56">
  <g id="Layer_1-2" data-name="Layer 1">
    <g>
      <path d="M51.52,35.98H0V2.67h141.46v33.31h-51.74v127.7h-38.2V35.98Z"/>
      <path d="M157.23,2.67h123.48v33.31h-85.5v28.21h80.84v33.53h-80.84v32.42h85.5v33.53h-123.48V2.67Z"/>
      <path d="M451.93,103.71c-2.96,18.8-11.4,33.98-25.32,45.53-13.92,11.55-31.02,17.32-51.3,17.32-25.02,0-44.71-7.47-59.07-22.43-14.36-14.95-21.54-35.31-21.54-61.07s7.36-45.67,22.1-60.63c14.73-14.95,34.61-22.43,59.63-22.43,19.84,0,36.49,5.81,49.97,17.43,13.47,11.62,21.61,26.76,24.43,45.41h-37.31c-2.08-10.51-6.59-18.39-13.55-23.65-6.96-5.25-15.25-7.88-24.87-7.88-11.7,0-21.32,4.63-28.87,13.88-7.55,9.25-11.33,21.87-11.33,37.87s3.77,29.24,11.33,38.42c7.55,9.18,17.32,13.77,29.31,13.77,9.47,0,17.84-2.44,25.1-7.33,7.25-4.89,11.91-12.96,13.99-24.21h37.31Z"/>
      <path d="M613.15,2.67v161.01h-37.98v-65.96h-66.18v65.96h-37.98V2.67h37.98v61.52h66.18V2.67h37.98Z"/>
      <path d="M743.73,163.67l-64.63-111.04v111.04h-36.64V2.67h46.19l64.63,111.04V2.67h36.64v161.01h-46.19Z"/>
      <path d="M892.74,166.56c-24.87,0-45.01-7.62-60.41-22.87-15.4-15.24-23.1-35.38-23.1-60.41s7.7-45.15,23.1-60.41c15.4-15.24,35.53-22.87,60.41-22.87s44.82,7.63,60.3,22.87c15.47,15.25,23.21,35.39,23.21,60.41s-7.74,45.16-23.21,60.41c-15.47,15.25-35.57,22.87-60.3,22.87ZM861.76,121.59c8.22,9.1,18.54,13.66,30.98,13.66s22.76-4.55,30.98-13.66c8.22-9.11,12.32-21.88,12.32-38.31s-4.11-29.2-12.32-38.31c-8.22-9.1-18.54-13.66-30.98-13.66s-22.76,4.55-30.98,13.66c-8.22,9.11-12.32,21.88-12.32,38.31s4.11,29.21,12.32,38.31Z"/>
      <path d="M1190.99,103.71c-2.96,18.8-11.4,33.98-25.32,45.53-13.92,11.55-31.02,17.32-51.3,17.32-25.02,0-44.71-7.47-59.07-22.43-14.36-14.95-21.54-35.31-21.54-61.07s7.36-45.67,22.1-60.63c14.73-14.95,34.61-22.43,59.63-22.43,19.84,0,36.49,5.81,49.97,17.43,13.47,11.62,21.61,26.76,24.43,45.41h-37.31c-2.08-10.51-6.59-18.39-13.55-23.65-6.96-5.25-15.25-7.88-24.87-7.88-11.7,0-21.32,4.63-28.87,13.88-7.55,9.25-11.33,21.87-11.33,37.87s3.77,29.24,11.33,38.42c7.55,9.18,17.32,13.77,29.31,13.77,9.47,0,17.84-2.44,25.1-7.33,7.25-4.89,11.91-12.96,13.99-24.21h37.31Z"/>
      <path d="M1210.09,2.67h123.48v33.31h-85.5v28.21h80.84v33.53h-80.84v32.42h85.5v33.53h-123.48V2.67Z"/>
      <path d="M1421.06,103.04h-25.76v60.63h-37.98V2.67h61.96c8.88,0,16.8.45,23.76,1.33,6.96.89,13.58,2.44,19.88,4.66,6.29,2.22,11.55,5.18,15.77,8.88,4.22,3.7,7.55,8.48,9.99,14.32,2.44,5.85,3.66,12.7,3.66,20.54,0,21.47-10.51,36.27-31.53,44.42l39.75,66.84h-44.64l-34.87-60.63ZM1395.3,34.65v36.42h25.1c10.22,0,18.06-1.29,23.54-3.89,5.48-2.59,8.22-7.36,8.22-14.32s-2.78-11.73-8.33-14.33c-5.55-2.59-13.36-3.89-23.43-3.89h-25.1Z"/>
      <path d="M1561.2,2.67h41.75l60.85,161.01h-41.31l-9.77-28.65h-62.18l-9.55,28.65h-40.42L1561.2,2.67ZM1560.97,104.16h41.53l-20.65-61.29-20.88,61.29Z"/>
      <path d="M1750.4,163.67l-36.2-128.8v128.8h-36.87V2.67h59.96l30.87,115.48,31.53-115.48h59.3v161.01h-36.87V34.65l-35.98,129.03h-35.76Z"/>
    </g>
  </g>
</svg>